<?xml version="1.0" encoding="utf-8"?>
<!-- Svg Vector Icons : http://www.onlinewebfonts.com/icon -->
<!DOCTYPE svg PUBLIC "-//W3C//DTD SVG 1.1//EN" "http://www.w3.org/Graphics/SVG/1.1/DTD/svg11.dtd">
<svg version="1.1" xmlns="http://www.w3.org/2000/svg" xmlns:xlink="http://www.w3.org/1999/xlink" x="0px" y="0px" viewBox="0 0 1000 1000" enable-background="new 0 0 1000 1000" xml:space="preserve">
<metadata> Svg Vector Icons : http://www.onlinewebfonts.com/icon </metadata>
<g><path d="M416,24.7h0.5c38.2,0,73.6,15.7,99.2,41.5c17.7,17.7,30.9,40.3,37,65.3h114.5c11.9,0,21.5,9.9,21.5,21.5v0.5v19.2h98.3c19.5,0,35.5,16,35.5,35.5v1v119.5c42,7.3,79.5,27.1,108.4,56.2l1,1.3c36,36.5,58.2,87.1,58.2,143c0,55.5-22.8,106.4-59.3,142.8l-0.5,0.5c-28.4,28.6-65.8,48.6-107.9,56.7v210.2c0,19.8-16,35.7-35.5,35.7h-1H45.7c-19.8,0-35.7-16-35.7-35.7v-0.8V208.3c0-19.5,16-35.5,35.7-35.5h0.8h97v-19.8c0-11.6,9.6-21.5,21.8-21.5h0.5h113.7c6.3-25.1,19.5-47.6,37.2-65.3C342,40.4,377.5,24.7,416,24.7L416,24.7z M348.6,789.7L348.6,789.7c-11.6,0-21.3-9.9-21.3-21.5c0-11.9,9.6-21,21.3-21h226c11.7,0,21,9.1,21,21c0,11.6-9.4,21.5-21,21.5H348.6L348.6,789.7z M348.6,618L348.6,618c-11.6,0-21.3-9.4-21.3-21.3c0-11.9,9.6-21.8,21.3-21.8h111.2c11.9,0,21.5,9.9,21.5,21.8c0,11.9-9.6,21.3-21.5,21.3H348.6L348.6,618z M348.6,446.9L348.6,446.9c-11.6,0-21.3-9.4-21.3-21c0-12.2,9.6-21.8,21.3-21.8h139.9c12.2,0,21.5,9.6,21.5,21.8c0,11.6-9.4,21-21.5,21H348.6L348.6,446.9z M750.9,328.6L750.9,328.6v-84.3h-62.3v19.5c0,11.9-9.6,21.8-21.5,21.8h-0.5H416H165.2c-12.2,0-21.8-9.9-21.8-21.8v-0.5v-19H81.2v659.4h669.8l0-174.2c-41.8-8.1-79-27.9-107.9-56.7v-0.5v0.5c-36.7-37-59.5-87.9-59.5-143.3c0-56.4,22.8-107.3,59.5-144.2C671.9,356,709.1,335.9,750.9,328.6L750.9,328.6z M900.3,415.5L900.3,415.5c-28.9-29.1-69.4-47.4-113.5-47.4c-44.6,0-84.6,18.2-113.7,47.4c-28.9,28.9-47.1,69.1-47.1,113.8c0,43.8,18.2,84.1,47.1,113c29.1,29.1,69.1,47.1,113.7,47.1c44.1,0,84.6-18,113.5-47.1c28.6-28.4,46.6-69.1,46.6-113c0-44.2-17.5-84-45.6-112.8L900.3,415.5L900.3,415.5z M150.6,696L150.6,696h0.5h100.8c12.2,0,21.3,9.6,21.3,21.8v0.3v100.6c0,11.6-9.1,21.5-21.3,21.5h-0.5H150.6c-11.7,0-21.3-9.9-21.3-21.5V818V717.7C129.3,705.6,138.9,696,150.6,696L150.6,696z M230.6,738.8L230.6,738.8h-58.8v58.8h58.8V738.8L230.6,738.8z M150.6,524.5L150.6,524.5h0.5h100.8c12.2,0,21.3,9.9,21.3,21.5v0.5v101.1c0,11.7-9.1,21.5-21.3,21.5h-0.5H150.6c-11.7,0-21.3-9.9-21.3-21.5v-1V546C129.3,534.4,138.9,524.5,150.6,524.5L150.6,524.5z M230.6,567.6L230.6,567.6h-58.8v58.5h58.8V567.6L230.6,567.6z M150.6,353.2L150.6,353.2h0.5h100.8c12.2,0,21.3,9.4,21.3,21v0.5v101c0,11.7-9.1,21.7-21.3,21.7h-0.5H150.6c-11.7,0-21.3-10-21.3-21.7v-0.5V374.2C129.3,362.5,138.9,353.2,150.6,353.2L150.6,353.2z M230.6,396L230.6,396h-58.8v58.8h58.8V396L230.6,396z M870,446.4L870,446.4c8.1-8.4,21.8-8.4,30.4,0c8.1,8.4,8.1,22,0,30.1L765.1,611.4c-8.1,8.6-21.8,8.6-30.4,0l-0.8-0.8l-61-61.3c-8.1-7.9-8.1-21.5,0-29.9c8.6-8.4,22.3-8.4,30.4,0l47.1,46.6L870,446.4L870,446.4z M508.3,131.6L508.3,131.6c-5.1-13.4-13.2-25.6-23-35.5c-17.9-17.7-42.2-28.6-68.8-28.6H416c-26.8,0-51.4,10.9-68.9,28.6c-10.1,9.9-17.7,22-22.8,35.5H416H508.3L508.3,131.6z M416,174.6L416,174.6H186.5v33.7v34.2H416h230.1v-34.2v-33.7H416L416,174.6z"/></g>
</svg>